<mxfile host="app.diagrams.net" modified="2023-12-25T19:21:25.201Z" agent="Mozilla/5.0 (Windows NT 10.0; Win64; x64) AppleWebKit/537.36 (KHTML, like Gecko) Chrome/120.0.0.0 Safari/537.36 Edg/120.0.0.0" etag="D8HSjoSkWJDfrIDNVTT3" version="22.1.11" type="device">
  <diagram name="Страница — 1" id="6N8Kv0qwtwaITpmGnXV4">
    <mxGraphModel dx="3145" dy="-1282" grid="0" gridSize="10" guides="1" tooltips="1" connect="1" arrows="1" fold="1" page="0" pageScale="1" pageWidth="827" pageHeight="1169" math="0" shadow="0">
      <root>
        <mxCell id="0" />
        <mxCell id="1" parent="0" />
        <mxCell id="I1jz4jynu2ulrxtqJUiv-1" value="Spectacle" style="swimlane;fontStyle=0;childLayout=stackLayout;horizontal=1;startSize=30;horizontalStack=0;resizeParent=1;resizeParentMax=0;resizeLast=0;collapsible=1;marginBottom=0;whiteSpace=wrap;html=1;" vertex="1" parent="1">
          <mxGeometry x="-297" y="2906" width="270" height="180" as="geometry" />
        </mxCell>
        <mxCell id="I1jz4jynu2ulrxtqJUiv-2" value="+&amp;nbsp;spectacleId: int" style="text;strokeColor=none;fillColor=none;align=left;verticalAlign=middle;spacingLeft=4;spacingRight=4;overflow=hidden;points=[[0,0.5],[1,0.5]];portConstraint=eastwest;rotatable=0;whiteSpace=wrap;html=1;" vertex="1" parent="I1jz4jynu2ulrxtqJUiv-1">
          <mxGeometry y="30" width="270" height="30" as="geometry" />
        </mxCell>
        <mxCell id="I1jz4jynu2ulrxtqJUiv-95" value="+&amp;nbsp;title: string" style="text;strokeColor=none;fillColor=none;align=left;verticalAlign=middle;spacingLeft=4;spacingRight=4;overflow=hidden;points=[[0,0.5],[1,0.5]];portConstraint=eastwest;rotatable=0;whiteSpace=wrap;html=1;" vertex="1" parent="I1jz4jynu2ulrxtqJUiv-1">
          <mxGeometry y="60" width="270" height="30" as="geometry" />
        </mxCell>
        <mxCell id="I1jz4jynu2ulrxtqJUiv-3" value="+&amp;nbsp;description: string" style="text;strokeColor=none;fillColor=none;align=left;verticalAlign=middle;spacingLeft=4;spacingRight=4;overflow=hidden;points=[[0,0.5],[1,0.5]];portConstraint=eastwest;rotatable=0;whiteSpace=wrap;html=1;" vertex="1" parent="I1jz4jynu2ulrxtqJUiv-1">
          <mxGeometry y="90" width="270" height="30" as="geometry" />
        </mxCell>
        <mxCell id="I1jz4jynu2ulrxtqJUiv-4" value="+&amp;nbsp;cast: string" style="text;strokeColor=none;fillColor=none;align=left;verticalAlign=middle;spacingLeft=4;spacingRight=4;overflow=hidden;points=[[0,0.5],[1,0.5]];portConstraint=eastwest;rotatable=0;whiteSpace=wrap;html=1;" vertex="1" parent="I1jz4jynu2ulrxtqJUiv-1">
          <mxGeometry y="120" width="270" height="30" as="geometry" />
        </mxCell>
        <mxCell id="I1jz4jynu2ulrxtqJUiv-5" value="+&amp;nbsp;schedule: string" style="text;strokeColor=none;fillColor=none;align=left;verticalAlign=middle;spacingLeft=4;spacingRight=4;overflow=hidden;points=[[0,0.5],[1,0.5]];portConstraint=eastwest;rotatable=0;whiteSpace=wrap;html=1;" vertex="1" parent="I1jz4jynu2ulrxtqJUiv-1">
          <mxGeometry y="150" width="270" height="30" as="geometry" />
        </mxCell>
        <mxCell id="I1jz4jynu2ulrxtqJUiv-16" value="Reservation    " style="swimlane;fontStyle=0;childLayout=stackLayout;horizontal=1;startSize=30;horizontalStack=0;resizeParent=1;resizeParentMax=0;resizeLast=0;collapsible=1;marginBottom=0;whiteSpace=wrap;html=1;" vertex="1" parent="1">
          <mxGeometry x="-106" y="3171" width="210.5" height="149" as="geometry" />
        </mxCell>
        <mxCell id="I1jz4jynu2ulrxtqJUiv-17" value="+&amp;nbsp;reservationId: int" style="text;strokeColor=none;fillColor=none;align=left;verticalAlign=middle;spacingLeft=4;spacingRight=4;overflow=hidden;points=[[0,0.5],[1,0.5]];portConstraint=eastwest;rotatable=0;whiteSpace=wrap;html=1;" vertex="1" parent="I1jz4jynu2ulrxtqJUiv-16">
          <mxGeometry y="30" width="210.5" height="30" as="geometry" />
        </mxCell>
        <mxCell id="I1jz4jynu2ulrxtqJUiv-18" value="+&amp;nbsp;userId: int" style="text;strokeColor=none;fillColor=none;align=left;verticalAlign=middle;spacingLeft=4;spacingRight=4;overflow=hidden;points=[[0,0.5],[1,0.5]];portConstraint=eastwest;rotatable=0;whiteSpace=wrap;html=1;" vertex="1" parent="I1jz4jynu2ulrxtqJUiv-16">
          <mxGeometry y="60" width="210.5" height="30" as="geometry" />
        </mxCell>
        <mxCell id="I1jz4jynu2ulrxtqJUiv-19" value="+&amp;nbsp;spectacleId: int" style="text;strokeColor=none;fillColor=none;align=left;verticalAlign=middle;spacingLeft=4;spacingRight=4;overflow=hidden;points=[[0,0.5],[1,0.5]];portConstraint=eastwest;rotatable=0;whiteSpace=wrap;html=1;" vertex="1" parent="I1jz4jynu2ulrxtqJUiv-16">
          <mxGeometry y="90" width="210.5" height="30" as="geometry" />
        </mxCell>
        <mxCell id="I1jz4jynu2ulrxtqJUiv-20" value="+&amp;nbsp;seats: int" style="text;strokeColor=none;fillColor=none;align=left;verticalAlign=middle;spacingLeft=4;spacingRight=4;overflow=hidden;points=[[0,0.5],[1,0.5]];portConstraint=eastwest;rotatable=0;whiteSpace=wrap;html=1;" vertex="1" parent="I1jz4jynu2ulrxtqJUiv-16">
          <mxGeometry y="120" width="210.5" height="29" as="geometry" />
        </mxCell>
        <mxCell id="I1jz4jynu2ulrxtqJUiv-33" value="Moderator" style="swimlane;fontStyle=0;childLayout=stackLayout;horizontal=1;startSize=30;horizontalStack=0;resizeParent=1;resizeParentMax=0;resizeLast=0;collapsible=1;marginBottom=0;whiteSpace=wrap;html=1;" vertex="1" parent="1">
          <mxGeometry x="-103" y="2559" width="263" height="240" as="geometry" />
        </mxCell>
        <mxCell id="I1jz4jynu2ulrxtqJUiv-34" value="+ moderatorId: int" style="text;strokeColor=none;fillColor=none;align=left;verticalAlign=middle;spacingLeft=4;spacingRight=4;overflow=hidden;points=[[0,0.5],[1,0.5]];portConstraint=eastwest;rotatable=0;whiteSpace=wrap;html=1;" vertex="1" parent="I1jz4jynu2ulrxtqJUiv-33">
          <mxGeometry y="30" width="263" height="30" as="geometry" />
        </mxCell>
        <mxCell id="I1jz4jynu2ulrxtqJUiv-35" value="+&amp;nbsp;name: string" style="text;strokeColor=none;fillColor=none;align=left;verticalAlign=middle;spacingLeft=4;spacingRight=4;overflow=hidden;points=[[0,0.5],[1,0.5]];portConstraint=eastwest;rotatable=0;whiteSpace=wrap;html=1;" vertex="1" parent="I1jz4jynu2ulrxtqJUiv-33">
          <mxGeometry y="60" width="263" height="30" as="geometry" />
        </mxCell>
        <mxCell id="I1jz4jynu2ulrxtqJUiv-36" value="+&amp;nbsp;email: string" style="text;strokeColor=none;fillColor=none;align=left;verticalAlign=middle;spacingLeft=4;spacingRight=4;overflow=hidden;points=[[0,0.5],[1,0.5]];portConstraint=eastwest;rotatable=0;whiteSpace=wrap;html=1;" vertex="1" parent="I1jz4jynu2ulrxtqJUiv-33">
          <mxGeometry y="90" width="263" height="30" as="geometry" />
        </mxCell>
        <mxCell id="I1jz4jynu2ulrxtqJUiv-37" value="+&amp;nbsp;password: string" style="text;strokeColor=none;fillColor=none;align=left;verticalAlign=middle;spacingLeft=4;spacingRight=4;overflow=hidden;points=[[0,0.5],[1,0.5]];portConstraint=eastwest;rotatable=0;whiteSpace=wrap;html=1;" vertex="1" parent="I1jz4jynu2ulrxtqJUiv-33">
          <mxGeometry y="120" width="263" height="30" as="geometry" />
        </mxCell>
        <mxCell id="I1jz4jynu2ulrxtqJUiv-38" value="+approveReview(reviewId : int): bool" style="text;strokeColor=none;fillColor=none;align=left;verticalAlign=middle;spacingLeft=4;spacingRight=4;overflow=hidden;points=[[0,0.5],[1,0.5]];portConstraint=eastwest;rotatable=0;whiteSpace=wrap;html=1;" vertex="1" parent="I1jz4jynu2ulrxtqJUiv-33">
          <mxGeometry y="150" width="263" height="30" as="geometry" />
        </mxCell>
        <mxCell id="I1jz4jynu2ulrxtqJUiv-39" value="" style="endArrow=none;html=1;rounded=0;exitX=0.002;exitY=-0.108;exitDx=0;exitDy=0;exitPerimeter=0;" edge="1" parent="I1jz4jynu2ulrxtqJUiv-33" source="I1jz4jynu2ulrxtqJUiv-38">
          <mxGeometry width="50" height="50" relative="1" as="geometry">
            <mxPoint x="-9.5" y="98.24000000000001" as="sourcePoint" />
            <mxPoint x="262" y="147" as="targetPoint" />
          </mxGeometry>
        </mxCell>
        <mxCell id="I1jz4jynu2ulrxtqJUiv-40" value="+&amp;nbsp;manageUsers() : List&amp;lt;User&amp;gt;" style="text;strokeColor=none;fillColor=none;align=left;verticalAlign=middle;spacingLeft=4;spacingRight=4;overflow=hidden;points=[[0,0.5],[1,0.5]];portConstraint=eastwest;rotatable=0;whiteSpace=wrap;html=1;" vertex="1" parent="I1jz4jynu2ulrxtqJUiv-33">
          <mxGeometry y="180" width="263" height="30" as="geometry" />
        </mxCell>
        <mxCell id="I1jz4jynu2ulrxtqJUiv-41" value="+&amp;nbsp;moderateInfo(spectacleId: int) :&amp;nbsp;Spectacle " style="text;strokeColor=none;fillColor=none;align=left;verticalAlign=middle;spacingLeft=4;spacingRight=4;overflow=hidden;points=[[0,0.5],[1,0.5]];portConstraint=eastwest;rotatable=0;whiteSpace=wrap;html=1;" vertex="1" parent="I1jz4jynu2ulrxtqJUiv-33">
          <mxGeometry y="210" width="263" height="30" as="geometry" />
        </mxCell>
        <mxCell id="I1jz4jynu2ulrxtqJUiv-44" value="&amp;lt;&amp;lt;interface&amp;gt;&amp;gt;&lt;br&gt;IUser" style="swimlane;fontStyle=0;childLayout=stackLayout;horizontal=1;startSize=39;horizontalStack=0;resizeParent=1;resizeParentMax=0;resizeLast=0;collapsible=1;marginBottom=0;whiteSpace=wrap;html=1;" vertex="1" parent="1">
          <mxGeometry x="538" y="2631" width="349" height="191" as="geometry" />
        </mxCell>
        <mxCell id="I1jz4jynu2ulrxtqJUiv-45" value="+&amp;nbsp;viewSpectacleInfo(spectacleId: int): Spectacle" style="text;strokeColor=none;fillColor=none;align=left;verticalAlign=middle;spacingLeft=4;spacingRight=4;overflow=hidden;points=[[0,0.5],[1,0.5]];portConstraint=eastwest;rotatable=0;whiteSpace=wrap;html=1;" vertex="1" parent="I1jz4jynu2ulrxtqJUiv-44">
          <mxGeometry y="39" width="349" height="38" as="geometry" />
        </mxCell>
        <mxCell id="I1jz4jynu2ulrxtqJUiv-46" value="+&amp;nbsp;viewOrderHistory(): List&amp;lt;Reservation&amp;gt;" style="text;strokeColor=none;fillColor=none;align=left;verticalAlign=middle;spacingLeft=4;spacingRight=4;overflow=hidden;points=[[0,0.5],[1,0.5]];portConstraint=eastwest;rotatable=0;whiteSpace=wrap;html=1;" vertex="1" parent="I1jz4jynu2ulrxtqJUiv-44">
          <mxGeometry y="77" width="349" height="38" as="geometry" />
        </mxCell>
        <mxCell id="I1jz4jynu2ulrxtqJUiv-47" value="+&amp;nbsp;reserveTicket(spectacleId: int, seats: int): Reservation" style="text;strokeColor=none;fillColor=none;align=left;verticalAlign=middle;spacingLeft=4;spacingRight=4;overflow=hidden;points=[[0,0.5],[1,0.5]];portConstraint=eastwest;rotatable=0;whiteSpace=wrap;html=1;" vertex="1" parent="I1jz4jynu2ulrxtqJUiv-44">
          <mxGeometry y="115" width="349" height="38" as="geometry" />
        </mxCell>
        <mxCell id="I1jz4jynu2ulrxtqJUiv-84" value="+&amp;nbsp;leaveReview(spectacleId: int, rating: int): Review" style="text;strokeColor=none;fillColor=none;align=left;verticalAlign=middle;spacingLeft=4;spacingRight=4;overflow=hidden;points=[[0,0.5],[1,0.5]];portConstraint=eastwest;rotatable=0;whiteSpace=wrap;html=1;" vertex="1" parent="I1jz4jynu2ulrxtqJUiv-44">
          <mxGeometry y="153" width="349" height="38" as="geometry" />
        </mxCell>
        <mxCell id="I1jz4jynu2ulrxtqJUiv-48" value="&amp;lt;&amp;lt;interface&amp;gt;&amp;gt;&lt;br&gt;IModerator" style="swimlane;fontStyle=0;childLayout=stackLayout;horizontal=1;startSize=36;horizontalStack=0;resizeParent=1;resizeParentMax=0;resizeLast=0;collapsible=1;marginBottom=0;whiteSpace=wrap;html=1;" vertex="1" parent="1">
          <mxGeometry x="-511" y="2559" width="260" height="128" as="geometry" />
        </mxCell>
        <mxCell id="I1jz4jynu2ulrxtqJUiv-49" value="+approveReview(reviewId : int): bool" style="text;strokeColor=none;fillColor=none;align=left;verticalAlign=middle;spacingLeft=4;spacingRight=4;overflow=hidden;points=[[0,0.5],[1,0.5]];portConstraint=eastwest;rotatable=0;whiteSpace=wrap;html=1;" vertex="1" parent="I1jz4jynu2ulrxtqJUiv-48">
          <mxGeometry y="36" width="260" height="32" as="geometry" />
        </mxCell>
        <mxCell id="I1jz4jynu2ulrxtqJUiv-50" value="+&amp;nbsp;manageUsers() : List&amp;lt;User&amp;gt;" style="text;strokeColor=none;fillColor=none;align=left;verticalAlign=middle;spacingLeft=4;spacingRight=4;overflow=hidden;points=[[0,0.5],[1,0.5]];portConstraint=eastwest;rotatable=0;whiteSpace=wrap;html=1;" vertex="1" parent="I1jz4jynu2ulrxtqJUiv-48">
          <mxGeometry y="68" width="260" height="30" as="geometry" />
        </mxCell>
        <mxCell id="I1jz4jynu2ulrxtqJUiv-51" value="+&amp;nbsp;moderateInfo(spectacleId: int) :&amp;nbsp;Spectacle" style="text;strokeColor=none;fillColor=none;align=left;verticalAlign=middle;spacingLeft=4;spacingRight=4;overflow=hidden;points=[[0,0.5],[1,0.5]];portConstraint=eastwest;rotatable=0;whiteSpace=wrap;html=1;" vertex="1" parent="I1jz4jynu2ulrxtqJUiv-48">
          <mxGeometry y="98" width="260" height="30" as="geometry" />
        </mxCell>
        <mxCell id="I1jz4jynu2ulrxtqJUiv-55" style="rounded=0;orthogonalLoop=1;jettySize=auto;html=1;dashed=1;exitX=0.5;exitY=0;exitDx=0;exitDy=0;" edge="1" parent="1" source="I1jz4jynu2ulrxtqJUiv-75" target="I1jz4jynu2ulrxtqJUiv-44">
          <mxGeometry relative="1" as="geometry">
            <mxPoint x="678.7950000000001" y="2782" as="targetPoint" />
            <mxPoint x="731" y="3003" as="sourcePoint" />
          </mxGeometry>
        </mxCell>
        <mxCell id="I1jz4jynu2ulrxtqJUiv-63" value="Review     " style="swimlane;fontStyle=0;childLayout=stackLayout;horizontal=1;startSize=30;horizontalStack=0;resizeParent=1;resizeParentMax=0;resizeLast=0;collapsible=1;marginBottom=0;whiteSpace=wrap;html=1;" vertex="1" parent="1">
          <mxGeometry x="259" y="2795" width="210.5" height="149" as="geometry" />
        </mxCell>
        <mxCell id="I1jz4jynu2ulrxtqJUiv-64" value="+&amp;nbsp;reviewId: int" style="text;strokeColor=none;fillColor=none;align=left;verticalAlign=middle;spacingLeft=4;spacingRight=4;overflow=hidden;points=[[0,0.5],[1,0.5]];portConstraint=eastwest;rotatable=0;whiteSpace=wrap;html=1;" vertex="1" parent="I1jz4jynu2ulrxtqJUiv-63">
          <mxGeometry y="30" width="210.5" height="30" as="geometry" />
        </mxCell>
        <mxCell id="I1jz4jynu2ulrxtqJUiv-65" value="+&amp;nbsp;userId: int" style="text;strokeColor=none;fillColor=none;align=left;verticalAlign=middle;spacingLeft=4;spacingRight=4;overflow=hidden;points=[[0,0.5],[1,0.5]];portConstraint=eastwest;rotatable=0;whiteSpace=wrap;html=1;" vertex="1" parent="I1jz4jynu2ulrxtqJUiv-63">
          <mxGeometry y="60" width="210.5" height="30" as="geometry" />
        </mxCell>
        <mxCell id="I1jz4jynu2ulrxtqJUiv-66" value="+&amp;nbsp;spectacleId: int" style="text;strokeColor=none;fillColor=none;align=left;verticalAlign=middle;spacingLeft=4;spacingRight=4;overflow=hidden;points=[[0,0.5],[1,0.5]];portConstraint=eastwest;rotatable=0;whiteSpace=wrap;html=1;" vertex="1" parent="I1jz4jynu2ulrxtqJUiv-63">
          <mxGeometry y="90" width="210.5" height="30" as="geometry" />
        </mxCell>
        <mxCell id="I1jz4jynu2ulrxtqJUiv-67" value="+&amp;nbsp;rating: int" style="text;strokeColor=none;fillColor=none;align=left;verticalAlign=middle;spacingLeft=4;spacingRight=4;overflow=hidden;points=[[0,0.5],[1,0.5]];portConstraint=eastwest;rotatable=0;whiteSpace=wrap;html=1;" vertex="1" parent="I1jz4jynu2ulrxtqJUiv-63">
          <mxGeometry y="120" width="210.5" height="29" as="geometry" />
        </mxCell>
        <mxCell id="I1jz4jynu2ulrxtqJUiv-75" value="User" style="swimlane;fontStyle=0;childLayout=stackLayout;horizontal=1;startSize=30;horizontalStack=0;resizeParent=1;resizeParentMax=0;resizeLast=0;collapsible=1;marginBottom=0;whiteSpace=wrap;html=1;" vertex="1" parent="1">
          <mxGeometry x="581" y="2996" width="263" height="270" as="geometry" />
        </mxCell>
        <mxCell id="I1jz4jynu2ulrxtqJUiv-8" value="+ userID: int" style="text;strokeColor=none;fillColor=none;align=left;verticalAlign=middle;spacingLeft=4;spacingRight=4;overflow=hidden;points=[[0,0.5],[1,0.5]];portConstraint=eastwest;rotatable=0;whiteSpace=wrap;html=1;" vertex="1" parent="I1jz4jynu2ulrxtqJUiv-75">
          <mxGeometry y="30" width="263" height="30" as="geometry" />
        </mxCell>
        <mxCell id="I1jz4jynu2ulrxtqJUiv-9" value="+&amp;nbsp;name: string" style="text;strokeColor=none;fillColor=none;align=left;verticalAlign=middle;spacingLeft=4;spacingRight=4;overflow=hidden;points=[[0,0.5],[1,0.5]];portConstraint=eastwest;rotatable=0;whiteSpace=wrap;html=1;" vertex="1" parent="I1jz4jynu2ulrxtqJUiv-75">
          <mxGeometry y="60" width="263" height="30" as="geometry" />
        </mxCell>
        <mxCell id="I1jz4jynu2ulrxtqJUiv-77" value="+&amp;nbsp;name: string" style="text;strokeColor=none;fillColor=none;align=left;verticalAlign=middle;spacingLeft=4;spacingRight=4;overflow=hidden;points=[[0,0.5],[1,0.5]];portConstraint=eastwest;rotatable=0;whiteSpace=wrap;html=1;" vertex="1" parent="I1jz4jynu2ulrxtqJUiv-75">
          <mxGeometry y="90" width="263" height="30" as="geometry" />
        </mxCell>
        <mxCell id="I1jz4jynu2ulrxtqJUiv-11" value="+ password: string" style="text;strokeColor=none;fillColor=none;align=left;verticalAlign=middle;spacingLeft=4;spacingRight=4;overflow=hidden;points=[[0,0.5],[1,0.5]];portConstraint=eastwest;rotatable=0;whiteSpace=wrap;html=1;" vertex="1" parent="I1jz4jynu2ulrxtqJUiv-75">
          <mxGeometry y="120" width="263" height="30" as="geometry" />
        </mxCell>
        <mxCell id="I1jz4jynu2ulrxtqJUiv-81" value="" style="endArrow=none;html=1;rounded=0;exitX=0.002;exitY=-0.108;exitDx=0;exitDy=0;exitPerimeter=0;" edge="1" parent="I1jz4jynu2ulrxtqJUiv-75">
          <mxGeometry width="50" height="50" relative="1" as="geometry">
            <mxPoint x="0.5259999999998399" y="146.75999999999976" as="sourcePoint" />
            <mxPoint x="262" y="147" as="targetPoint" />
          </mxGeometry>
        </mxCell>
        <mxCell id="I1jz4jynu2ulrxtqJUiv-72" value="+&amp;nbsp;viewSpectacleInfo(spectacleId: int): Spectacle" style="text;strokeColor=none;fillColor=none;align=left;verticalAlign=middle;spacingLeft=4;spacingRight=4;overflow=hidden;points=[[0,0.5],[1,0.5]];portConstraint=eastwest;rotatable=0;whiteSpace=wrap;html=1;" vertex="1" parent="I1jz4jynu2ulrxtqJUiv-75">
          <mxGeometry y="150" width="263" height="30" as="geometry" />
        </mxCell>
        <mxCell id="I1jz4jynu2ulrxtqJUiv-73" value="+&amp;nbsp;viewOrderHistory(): List&amp;lt;Reservation&amp;gt; " style="text;strokeColor=none;fillColor=none;align=left;verticalAlign=middle;spacingLeft=4;spacingRight=4;overflow=hidden;points=[[0,0.5],[1,0.5]];portConstraint=eastwest;rotatable=0;whiteSpace=wrap;html=1;" vertex="1" parent="I1jz4jynu2ulrxtqJUiv-75">
          <mxGeometry y="180" width="263" height="30" as="geometry" />
        </mxCell>
        <mxCell id="I1jz4jynu2ulrxtqJUiv-15" value="+&amp;nbsp;reserveTicket(spectacleId: int, seats: int): Reservation" style="text;strokeColor=none;fillColor=none;align=left;verticalAlign=middle;spacingLeft=4;spacingRight=4;overflow=hidden;points=[[0,0.5],[1,0.5]];portConstraint=eastwest;rotatable=0;whiteSpace=wrap;html=1;" vertex="1" parent="I1jz4jynu2ulrxtqJUiv-75">
          <mxGeometry y="210" width="263" height="30" as="geometry" />
        </mxCell>
        <mxCell id="I1jz4jynu2ulrxtqJUiv-74" value="+&amp;nbsp;leaveReview(spectacleId: int, rating: int): Review" style="text;strokeColor=none;fillColor=none;align=left;verticalAlign=middle;spacingLeft=4;spacingRight=4;overflow=hidden;points=[[0,0.5],[1,0.5]];portConstraint=eastwest;rotatable=0;whiteSpace=wrap;html=1;" vertex="1" parent="I1jz4jynu2ulrxtqJUiv-75">
          <mxGeometry y="240" width="263" height="30" as="geometry" />
        </mxCell>
        <mxCell id="I1jz4jynu2ulrxtqJUiv-85" style="edgeStyle=orthogonalEdgeStyle;rounded=0;orthogonalLoop=1;jettySize=auto;html=1;exitX=1;exitY=0.5;exitDx=0;exitDy=0;entryX=0;entryY=0.5;entryDx=0;entryDy=0;" edge="1" parent="1" source="I1jz4jynu2ulrxtqJUiv-65" target="I1jz4jynu2ulrxtqJUiv-8">
          <mxGeometry relative="1" as="geometry" />
        </mxCell>
        <mxCell id="I1jz4jynu2ulrxtqJUiv-87" value="&lt;b&gt;...&lt;/b&gt;" style="text;html=1;align=center;verticalAlign=middle;resizable=0;points=[];autosize=1;strokeColor=none;fillColor=none;" vertex="1" parent="1">
          <mxGeometry x="473" y="2837" width="28" height="26" as="geometry" />
        </mxCell>
        <mxCell id="I1jz4jynu2ulrxtqJUiv-88" value="&lt;b&gt;1&lt;/b&gt;" style="text;html=1;align=center;verticalAlign=middle;resizable=0;points=[];autosize=1;strokeColor=none;fillColor=none;" vertex="1" parent="1">
          <mxGeometry x="546" y="3012" width="25" height="26" as="geometry" />
        </mxCell>
        <mxCell id="I1jz4jynu2ulrxtqJUiv-94" value="&lt;b&gt;...&lt;/b&gt;" style="text;html=1;align=center;verticalAlign=middle;resizable=0;points=[];autosize=1;strokeColor=none;fillColor=none;" vertex="1" parent="1">
          <mxGeometry x="108" y="3214" width="28" height="26" as="geometry" />
        </mxCell>
        <mxCell id="I1jz4jynu2ulrxtqJUiv-96" style="edgeStyle=orthogonalEdgeStyle;rounded=0;orthogonalLoop=1;jettySize=auto;html=1;exitX=1;exitY=0.5;exitDx=0;exitDy=0;entryX=0;entryY=0.5;entryDx=0;entryDy=0;" edge="1" parent="1" source="I1jz4jynu2ulrxtqJUiv-2" target="I1jz4jynu2ulrxtqJUiv-66">
          <mxGeometry relative="1" as="geometry" />
        </mxCell>
        <mxCell id="I1jz4jynu2ulrxtqJUiv-97" value="&lt;b&gt;...&lt;/b&gt;" style="text;html=1;align=center;verticalAlign=middle;resizable=0;points=[];autosize=1;strokeColor=none;fillColor=none;" vertex="1" parent="1">
          <mxGeometry x="224" y="2909" width="28" height="26" as="geometry" />
        </mxCell>
        <mxCell id="I1jz4jynu2ulrxtqJUiv-98" value="&lt;b&gt;1&lt;/b&gt;" style="text;html=1;align=center;verticalAlign=middle;resizable=0;points=[];autosize=1;strokeColor=none;fillColor=none;" vertex="1" parent="1">
          <mxGeometry x="-19" y="2918" width="25" height="26" as="geometry" />
        </mxCell>
        <mxCell id="I1jz4jynu2ulrxtqJUiv-99" style="edgeStyle=orthogonalEdgeStyle;rounded=0;orthogonalLoop=1;jettySize=auto;html=1;exitX=0;exitY=0.5;exitDx=0;exitDy=0;entryX=0;entryY=0.5;entryDx=0;entryDy=0;" edge="1" parent="1" source="I1jz4jynu2ulrxtqJUiv-2" target="I1jz4jynu2ulrxtqJUiv-19">
          <mxGeometry relative="1" as="geometry">
            <Array as="points">
              <mxPoint x="-297" y="2946" />
              <mxPoint x="-325" y="2946" />
              <mxPoint x="-325" y="3276" />
            </Array>
          </mxGeometry>
        </mxCell>
        <mxCell id="I1jz4jynu2ulrxtqJUiv-101" value="&lt;b&gt;1&lt;/b&gt;" style="text;html=1;align=center;verticalAlign=middle;resizable=0;points=[];autosize=1;strokeColor=none;fillColor=none;" vertex="1" parent="1">
          <mxGeometry x="-330" y="2909" width="25" height="26" as="geometry" />
        </mxCell>
        <mxCell id="I1jz4jynu2ulrxtqJUiv-102" value="&lt;b&gt;...&lt;/b&gt;" style="text;html=1;align=center;verticalAlign=middle;resizable=0;points=[];autosize=1;strokeColor=none;fillColor=none;" vertex="1" parent="1">
          <mxGeometry x="-144" y="3240" width="28" height="26" as="geometry" />
        </mxCell>
        <mxCell id="I1jz4jynu2ulrxtqJUiv-109" style="edgeStyle=orthogonalEdgeStyle;rounded=0;orthogonalLoop=1;jettySize=auto;html=1;exitX=0;exitY=0.5;exitDx=0;exitDy=0;entryX=1;entryY=0.5;entryDx=0;entryDy=0;" edge="1" parent="1" source="I1jz4jynu2ulrxtqJUiv-65" target="I1jz4jynu2ulrxtqJUiv-34">
          <mxGeometry relative="1" as="geometry" />
        </mxCell>
        <mxCell id="I1jz4jynu2ulrxtqJUiv-111" style="rounded=0;orthogonalLoop=1;jettySize=auto;html=1;dashed=1;exitX=0.5;exitY=0;exitDx=0;exitDy=0;entryX=0.5;entryY=0;entryDx=0;entryDy=0;" edge="1" parent="1" source="I1jz4jynu2ulrxtqJUiv-33" target="I1jz4jynu2ulrxtqJUiv-48">
          <mxGeometry relative="1" as="geometry">
            <mxPoint x="4" y="2379" as="targetPoint" />
            <mxPoint x="5" y="2639" as="sourcePoint" />
            <Array as="points">
              <mxPoint x="30" y="2517" />
              <mxPoint x="-185" y="2517" />
              <mxPoint x="-381" y="2515" />
            </Array>
          </mxGeometry>
        </mxCell>
        <mxCell id="I1jz4jynu2ulrxtqJUiv-112" style="edgeStyle=orthogonalEdgeStyle;rounded=0;orthogonalLoop=1;jettySize=auto;html=1;exitX=1;exitY=0.5;exitDx=0;exitDy=0;entryX=1;entryY=0.5;entryDx=0;entryDy=0;" edge="1" parent="1" source="I1jz4jynu2ulrxtqJUiv-18" target="I1jz4jynu2ulrxtqJUiv-9">
          <mxGeometry relative="1" as="geometry">
            <Array as="points">
              <mxPoint x="147" y="3246" />
              <mxPoint x="147" y="3290" />
              <mxPoint x="864" y="3290" />
              <mxPoint x="864" y="3071" />
            </Array>
          </mxGeometry>
        </mxCell>
        <mxCell id="I1jz4jynu2ulrxtqJUiv-113" value="&lt;b&gt;1&lt;/b&gt;" style="text;html=1;align=center;verticalAlign=middle;resizable=0;points=[];autosize=1;strokeColor=none;fillColor=none;" vertex="1" parent="1">
          <mxGeometry x="850" y="3038" width="25" height="26" as="geometry" />
        </mxCell>
        <mxCell id="I1jz4jynu2ulrxtqJUiv-115" value="&lt;b&gt;...&lt;/b&gt;" style="text;html=1;align=center;verticalAlign=middle;resizable=0;points=[];autosize=1;strokeColor=none;fillColor=none;" vertex="1" parent="1">
          <mxGeometry x="224" y="2837" width="28" height="26" as="geometry" />
        </mxCell>
        <mxCell id="I1jz4jynu2ulrxtqJUiv-116" value="&lt;b&gt;1&lt;/b&gt;" style="text;html=1;align=center;verticalAlign=middle;resizable=0;points=[];autosize=1;strokeColor=none;fillColor=none;" vertex="1" parent="1">
          <mxGeometry x="172" y="2571" width="25" height="26" as="geometry" />
        </mxCell>
        <mxCell id="I1jz4jynu2ulrxtqJUiv-178" style="edgeStyle=orthogonalEdgeStyle;rounded=0;orthogonalLoop=1;jettySize=auto;html=1;dashed=1;endArrow=open;endFill=0;entryX=0.499;entryY=0.029;entryDx=0;entryDy=0;entryPerimeter=0;" edge="1" parent="1" source="I1jz4jynu2ulrxtqJUiv-179" target="I1jz4jynu2ulrxtqJUiv-180">
          <mxGeometry relative="1" as="geometry">
            <mxPoint x="1571.223791725852" y="2642" as="targetPoint" />
          </mxGeometry>
        </mxCell>
        <mxCell id="I1jz4jynu2ulrxtqJUiv-179" value="&lt;font style=&quot;font-size: 22px;&quot;&gt;Light and Shadows&lt;/font&gt;" style="shape=folder;fontStyle=1;spacingTop=10;tabWidth=40;tabHeight=14;tabPosition=left;html=1;whiteSpace=wrap;" vertex="1" parent="1">
          <mxGeometry x="1989.11" y="2507" width="225.5" height="132" as="geometry" />
        </mxCell>
        <mxCell id="I1jz4jynu2ulrxtqJUiv-180" value="" style="shape=folder;fontStyle=1;spacingTop=10;tabWidth=40;tabHeight=14;tabPosition=left;html=1;whiteSpace=wrap;" vertex="1" parent="1">
          <mxGeometry x="1408.86" y="2704" width="1256" height="421" as="geometry" />
        </mxCell>
        <mxCell id="I1jz4jynu2ulrxtqJUiv-181" value="&lt;font style=&quot;font-size: 26px;&quot;&gt;Catalog&lt;/font&gt;" style="text;html=1;strokeColor=none;fillColor=none;align=center;verticalAlign=middle;whiteSpace=wrap;rounded=0;" vertex="1" parent="1">
          <mxGeometry x="1626.86" y="2734" width="141" height="30" as="geometry" />
        </mxCell>
        <mxCell id="I1jz4jynu2ulrxtqJUiv-211" value="&lt;b&gt;...&lt;/b&gt;" style="text;html=1;align=center;verticalAlign=middle;resizable=0;points=[];autosize=1;strokeColor=none;fillColor=none;" vertex="1" parent="1">
          <mxGeometry x="1645.86" y="2870" width="28" height="26" as="geometry" />
        </mxCell>
        <mxCell id="I1jz4jynu2ulrxtqJUiv-215" value="" style="shape=folder;fontStyle=1;spacingTop=10;tabWidth=40;tabHeight=14;tabPosition=left;html=1;whiteSpace=wrap;" vertex="1" parent="1">
          <mxGeometry x="1725.86" y="3239" width="558" height="383" as="geometry" />
        </mxCell>
        <mxCell id="I1jz4jynu2ulrxtqJUiv-216" value="&lt;font style=&quot;font-size: 26px;&quot;&gt;Moderator&lt;/font&gt;" style="text;html=1;strokeColor=none;fillColor=none;align=center;verticalAlign=middle;whiteSpace=wrap;rounded=0;" vertex="1" parent="1">
          <mxGeometry x="1750.86" y="3267" width="142" height="30" as="geometry" />
        </mxCell>
        <mxCell id="I1jz4jynu2ulrxtqJUiv-230" value="" style="shape=folder;fontStyle=1;spacingTop=10;tabWidth=40;tabHeight=14;tabPosition=left;html=1;whiteSpace=wrap;" vertex="1" parent="1">
          <mxGeometry x="2727.86" y="2711" width="439" height="731" as="geometry" />
        </mxCell>
        <mxCell id="I1jz4jynu2ulrxtqJUiv-231" value="&lt;font style=&quot;font-size: 26px;&quot;&gt;Interfaces&lt;/font&gt;" style="text;html=1;strokeColor=none;fillColor=none;align=center;verticalAlign=middle;whiteSpace=wrap;rounded=0;" vertex="1" parent="1">
          <mxGeometry x="2875.86" y="2752" width="142" height="30" as="geometry" />
        </mxCell>
        <mxCell id="I1jz4jynu2ulrxtqJUiv-246" style="rounded=0;orthogonalLoop=1;jettySize=auto;html=1;dashed=1;exitX=1;exitY=0.864;exitDx=0;exitDy=0;exitPerimeter=0;" edge="1" parent="1" source="I1jz4jynu2ulrxtqJUiv-269" target="I1jz4jynu2ulrxtqJUiv-262">
          <mxGeometry relative="1" as="geometry">
            <mxPoint x="2751.86" y="2891" as="targetPoint" />
            <mxPoint x="2584.86" y="2890" as="sourcePoint" />
          </mxGeometry>
        </mxCell>
        <mxCell id="I1jz4jynu2ulrxtqJUiv-247" value="" style="edgeStyle=orthogonalEdgeStyle;rounded=0;orthogonalLoop=1;jettySize=auto;html=1;dashed=1;entryX=0;entryY=0.25;entryDx=0;entryDy=0;exitX=1;exitY=0.5;exitDx=0;exitDy=0;" edge="1" parent="1" source="I1jz4jynu2ulrxtqJUiv-251" target="I1jz4jynu2ulrxtqJUiv-257">
          <mxGeometry relative="1" as="geometry">
            <mxPoint x="2775.86" y="3293" as="targetPoint" />
            <mxPoint x="2180.86" y="3435" as="sourcePoint" />
          </mxGeometry>
        </mxCell>
        <mxCell id="I1jz4jynu2ulrxtqJUiv-248" value="Moderator" style="swimlane;fontStyle=0;childLayout=stackLayout;horizontal=1;startSize=30;horizontalStack=0;resizeParent=1;resizeParentMax=0;resizeLast=0;collapsible=1;marginBottom=0;whiteSpace=wrap;html=1;" vertex="1" parent="1">
          <mxGeometry x="1875.36" y="3322" width="263" height="240" as="geometry" />
        </mxCell>
        <mxCell id="I1jz4jynu2ulrxtqJUiv-249" value="+ moderatorId: int" style="text;strokeColor=none;fillColor=none;align=left;verticalAlign=middle;spacingLeft=4;spacingRight=4;overflow=hidden;points=[[0,0.5],[1,0.5]];portConstraint=eastwest;rotatable=0;whiteSpace=wrap;html=1;" vertex="1" parent="I1jz4jynu2ulrxtqJUiv-248">
          <mxGeometry y="30" width="263" height="30" as="geometry" />
        </mxCell>
        <mxCell id="I1jz4jynu2ulrxtqJUiv-250" value="+&amp;nbsp;name: string" style="text;strokeColor=none;fillColor=none;align=left;verticalAlign=middle;spacingLeft=4;spacingRight=4;overflow=hidden;points=[[0,0.5],[1,0.5]];portConstraint=eastwest;rotatable=0;whiteSpace=wrap;html=1;" vertex="1" parent="I1jz4jynu2ulrxtqJUiv-248">
          <mxGeometry y="60" width="263" height="30" as="geometry" />
        </mxCell>
        <mxCell id="I1jz4jynu2ulrxtqJUiv-251" value="+&amp;nbsp;email: string" style="text;strokeColor=none;fillColor=none;align=left;verticalAlign=middle;spacingLeft=4;spacingRight=4;overflow=hidden;points=[[0,0.5],[1,0.5]];portConstraint=eastwest;rotatable=0;whiteSpace=wrap;html=1;" vertex="1" parent="I1jz4jynu2ulrxtqJUiv-248">
          <mxGeometry y="90" width="263" height="30" as="geometry" />
        </mxCell>
        <mxCell id="I1jz4jynu2ulrxtqJUiv-252" value="+&amp;nbsp;password: string" style="text;strokeColor=none;fillColor=none;align=left;verticalAlign=middle;spacingLeft=4;spacingRight=4;overflow=hidden;points=[[0,0.5],[1,0.5]];portConstraint=eastwest;rotatable=0;whiteSpace=wrap;html=1;" vertex="1" parent="I1jz4jynu2ulrxtqJUiv-248">
          <mxGeometry y="120" width="263" height="30" as="geometry" />
        </mxCell>
        <mxCell id="I1jz4jynu2ulrxtqJUiv-253" value="+approveReview(reviewId : int): bool" style="text;strokeColor=none;fillColor=none;align=left;verticalAlign=middle;spacingLeft=4;spacingRight=4;overflow=hidden;points=[[0,0.5],[1,0.5]];portConstraint=eastwest;rotatable=0;whiteSpace=wrap;html=1;" vertex="1" parent="I1jz4jynu2ulrxtqJUiv-248">
          <mxGeometry y="150" width="263" height="30" as="geometry" />
        </mxCell>
        <mxCell id="I1jz4jynu2ulrxtqJUiv-254" value="" style="endArrow=none;html=1;rounded=0;exitX=0.002;exitY=-0.108;exitDx=0;exitDy=0;exitPerimeter=0;" edge="1" parent="I1jz4jynu2ulrxtqJUiv-248" source="I1jz4jynu2ulrxtqJUiv-253">
          <mxGeometry width="50" height="50" relative="1" as="geometry">
            <mxPoint x="-9.5" y="98.24000000000001" as="sourcePoint" />
            <mxPoint x="262" y="147" as="targetPoint" />
          </mxGeometry>
        </mxCell>
        <mxCell id="I1jz4jynu2ulrxtqJUiv-255" value="+&amp;nbsp;manageUsers() : List&amp;lt;User&amp;gt;" style="text;strokeColor=none;fillColor=none;align=left;verticalAlign=middle;spacingLeft=4;spacingRight=4;overflow=hidden;points=[[0,0.5],[1,0.5]];portConstraint=eastwest;rotatable=0;whiteSpace=wrap;html=1;" vertex="1" parent="I1jz4jynu2ulrxtqJUiv-248">
          <mxGeometry y="180" width="263" height="30" as="geometry" />
        </mxCell>
        <mxCell id="I1jz4jynu2ulrxtqJUiv-256" value="+&amp;nbsp;moderateInfo(spectacleId: int) :&amp;nbsp;Spectacle " style="text;strokeColor=none;fillColor=none;align=left;verticalAlign=middle;spacingLeft=4;spacingRight=4;overflow=hidden;points=[[0,0.5],[1,0.5]];portConstraint=eastwest;rotatable=0;whiteSpace=wrap;html=1;" vertex="1" parent="I1jz4jynu2ulrxtqJUiv-248">
          <mxGeometry y="210" width="263" height="30" as="geometry" />
        </mxCell>
        <mxCell id="I1jz4jynu2ulrxtqJUiv-257" value="&amp;lt;&amp;lt;interface&amp;gt;&amp;gt;&lt;br&gt;IModerator" style="swimlane;fontStyle=0;childLayout=stackLayout;horizontal=1;startSize=36;horizontalStack=0;resizeParent=1;resizeParentMax=0;resizeLast=0;collapsible=1;marginBottom=0;whiteSpace=wrap;html=1;" vertex="1" parent="1">
          <mxGeometry x="2823.86" y="3175" width="260" height="128" as="geometry" />
        </mxCell>
        <mxCell id="I1jz4jynu2ulrxtqJUiv-258" value="+approveReview(reviewId : int): bool" style="text;strokeColor=none;fillColor=none;align=left;verticalAlign=middle;spacingLeft=4;spacingRight=4;overflow=hidden;points=[[0,0.5],[1,0.5]];portConstraint=eastwest;rotatable=0;whiteSpace=wrap;html=1;" vertex="1" parent="I1jz4jynu2ulrxtqJUiv-257">
          <mxGeometry y="36" width="260" height="32" as="geometry" />
        </mxCell>
        <mxCell id="I1jz4jynu2ulrxtqJUiv-259" value="+&amp;nbsp;manageUsers() : List&amp;lt;User&amp;gt;" style="text;strokeColor=none;fillColor=none;align=left;verticalAlign=middle;spacingLeft=4;spacingRight=4;overflow=hidden;points=[[0,0.5],[1,0.5]];portConstraint=eastwest;rotatable=0;whiteSpace=wrap;html=1;" vertex="1" parent="I1jz4jynu2ulrxtqJUiv-257">
          <mxGeometry y="68" width="260" height="30" as="geometry" />
        </mxCell>
        <mxCell id="I1jz4jynu2ulrxtqJUiv-260" value="+&amp;nbsp;moderateInfo(spectacleId: int) :&amp;nbsp;Spectacle" style="text;strokeColor=none;fillColor=none;align=left;verticalAlign=middle;spacingLeft=4;spacingRight=4;overflow=hidden;points=[[0,0.5],[1,0.5]];portConstraint=eastwest;rotatable=0;whiteSpace=wrap;html=1;" vertex="1" parent="I1jz4jynu2ulrxtqJUiv-257">
          <mxGeometry y="98" width="260" height="30" as="geometry" />
        </mxCell>
        <mxCell id="I1jz4jynu2ulrxtqJUiv-261" value="&amp;lt;&amp;lt;interface&amp;gt;&amp;gt;&lt;br&gt;IUser" style="swimlane;fontStyle=0;childLayout=stackLayout;horizontal=1;startSize=39;horizontalStack=0;resizeParent=1;resizeParentMax=0;resizeLast=0;collapsible=1;marginBottom=0;whiteSpace=wrap;html=1;" vertex="1" parent="1">
          <mxGeometry x="2791.86" y="2843" width="349" height="191" as="geometry" />
        </mxCell>
        <mxCell id="I1jz4jynu2ulrxtqJUiv-262" value="+&amp;nbsp;viewSpectacleInfo(spectacleId: int): Spectacle" style="text;strokeColor=none;fillColor=none;align=left;verticalAlign=middle;spacingLeft=4;spacingRight=4;overflow=hidden;points=[[0,0.5],[1,0.5]];portConstraint=eastwest;rotatable=0;whiteSpace=wrap;html=1;" vertex="1" parent="I1jz4jynu2ulrxtqJUiv-261">
          <mxGeometry y="39" width="349" height="38" as="geometry" />
        </mxCell>
        <mxCell id="I1jz4jynu2ulrxtqJUiv-263" value="+&amp;nbsp;viewOrderHistory(): List&amp;lt;Reservation&amp;gt;" style="text;strokeColor=none;fillColor=none;align=left;verticalAlign=middle;spacingLeft=4;spacingRight=4;overflow=hidden;points=[[0,0.5],[1,0.5]];portConstraint=eastwest;rotatable=0;whiteSpace=wrap;html=1;" vertex="1" parent="I1jz4jynu2ulrxtqJUiv-261">
          <mxGeometry y="77" width="349" height="38" as="geometry" />
        </mxCell>
        <mxCell id="I1jz4jynu2ulrxtqJUiv-264" value="+&amp;nbsp;reserveTicket(spectacleId: int, seats: int): Reservation" style="text;strokeColor=none;fillColor=none;align=left;verticalAlign=middle;spacingLeft=4;spacingRight=4;overflow=hidden;points=[[0,0.5],[1,0.5]];portConstraint=eastwest;rotatable=0;whiteSpace=wrap;html=1;" vertex="1" parent="I1jz4jynu2ulrxtqJUiv-261">
          <mxGeometry y="115" width="349" height="38" as="geometry" />
        </mxCell>
        <mxCell id="I1jz4jynu2ulrxtqJUiv-265" value="+&amp;nbsp;leaveReview(spectacleId: int, rating: int): Review" style="text;strokeColor=none;fillColor=none;align=left;verticalAlign=middle;spacingLeft=4;spacingRight=4;overflow=hidden;points=[[0,0.5],[1,0.5]];portConstraint=eastwest;rotatable=0;whiteSpace=wrap;html=1;" vertex="1" parent="I1jz4jynu2ulrxtqJUiv-261">
          <mxGeometry y="153" width="349" height="38" as="geometry" />
        </mxCell>
        <mxCell id="I1jz4jynu2ulrxtqJUiv-266" value="User" style="swimlane;fontStyle=0;childLayout=stackLayout;horizontal=1;startSize=30;horizontalStack=0;resizeParent=1;resizeParentMax=0;resizeLast=0;collapsible=1;marginBottom=0;whiteSpace=wrap;html=1;" vertex="1" parent="1">
          <mxGeometry x="2342.86" y="2782" width="263" height="270" as="geometry" />
        </mxCell>
        <mxCell id="I1jz4jynu2ulrxtqJUiv-267" value="+ userID: int" style="text;strokeColor=none;fillColor=none;align=left;verticalAlign=middle;spacingLeft=4;spacingRight=4;overflow=hidden;points=[[0,0.5],[1,0.5]];portConstraint=eastwest;rotatable=0;whiteSpace=wrap;html=1;" vertex="1" parent="I1jz4jynu2ulrxtqJUiv-266">
          <mxGeometry y="30" width="263" height="30" as="geometry" />
        </mxCell>
        <mxCell id="I1jz4jynu2ulrxtqJUiv-268" value="+&amp;nbsp;name: string" style="text;strokeColor=none;fillColor=none;align=left;verticalAlign=middle;spacingLeft=4;spacingRight=4;overflow=hidden;points=[[0,0.5],[1,0.5]];portConstraint=eastwest;rotatable=0;whiteSpace=wrap;html=1;" vertex="1" parent="I1jz4jynu2ulrxtqJUiv-266">
          <mxGeometry y="60" width="263" height="30" as="geometry" />
        </mxCell>
        <mxCell id="I1jz4jynu2ulrxtqJUiv-269" value="+&amp;nbsp;name: string" style="text;strokeColor=none;fillColor=none;align=left;verticalAlign=middle;spacingLeft=4;spacingRight=4;overflow=hidden;points=[[0,0.5],[1,0.5]];portConstraint=eastwest;rotatable=0;whiteSpace=wrap;html=1;" vertex="1" parent="I1jz4jynu2ulrxtqJUiv-266">
          <mxGeometry y="90" width="263" height="30" as="geometry" />
        </mxCell>
        <mxCell id="I1jz4jynu2ulrxtqJUiv-270" value="+ password: string" style="text;strokeColor=none;fillColor=none;align=left;verticalAlign=middle;spacingLeft=4;spacingRight=4;overflow=hidden;points=[[0,0.5],[1,0.5]];portConstraint=eastwest;rotatable=0;whiteSpace=wrap;html=1;" vertex="1" parent="I1jz4jynu2ulrxtqJUiv-266">
          <mxGeometry y="120" width="263" height="30" as="geometry" />
        </mxCell>
        <mxCell id="I1jz4jynu2ulrxtqJUiv-271" value="" style="endArrow=none;html=1;rounded=0;exitX=0.002;exitY=-0.108;exitDx=0;exitDy=0;exitPerimeter=0;" edge="1" parent="I1jz4jynu2ulrxtqJUiv-266">
          <mxGeometry width="50" height="50" relative="1" as="geometry">
            <mxPoint x="0.5259999999998399" y="146.75999999999976" as="sourcePoint" />
            <mxPoint x="262" y="147" as="targetPoint" />
          </mxGeometry>
        </mxCell>
        <mxCell id="I1jz4jynu2ulrxtqJUiv-272" value="+&amp;nbsp;viewSpectacleInfo(spectacleId: int): Spectacle" style="text;strokeColor=none;fillColor=none;align=left;verticalAlign=middle;spacingLeft=4;spacingRight=4;overflow=hidden;points=[[0,0.5],[1,0.5]];portConstraint=eastwest;rotatable=0;whiteSpace=wrap;html=1;" vertex="1" parent="I1jz4jynu2ulrxtqJUiv-266">
          <mxGeometry y="150" width="263" height="30" as="geometry" />
        </mxCell>
        <mxCell id="I1jz4jynu2ulrxtqJUiv-273" value="+&amp;nbsp;viewOrderHistory(): List&amp;lt;Reservation&amp;gt; " style="text;strokeColor=none;fillColor=none;align=left;verticalAlign=middle;spacingLeft=4;spacingRight=4;overflow=hidden;points=[[0,0.5],[1,0.5]];portConstraint=eastwest;rotatable=0;whiteSpace=wrap;html=1;" vertex="1" parent="I1jz4jynu2ulrxtqJUiv-266">
          <mxGeometry y="180" width="263" height="30" as="geometry" />
        </mxCell>
        <mxCell id="I1jz4jynu2ulrxtqJUiv-274" value="+&amp;nbsp;reserveTicket(spectacleId: int, seats: int): Reservation" style="text;strokeColor=none;fillColor=none;align=left;verticalAlign=middle;spacingLeft=4;spacingRight=4;overflow=hidden;points=[[0,0.5],[1,0.5]];portConstraint=eastwest;rotatable=0;whiteSpace=wrap;html=1;" vertex="1" parent="I1jz4jynu2ulrxtqJUiv-266">
          <mxGeometry y="210" width="263" height="30" as="geometry" />
        </mxCell>
        <mxCell id="I1jz4jynu2ulrxtqJUiv-275" value="+&amp;nbsp;leaveReview(spectacleId: int, rating: int): Review" style="text;strokeColor=none;fillColor=none;align=left;verticalAlign=middle;spacingLeft=4;spacingRight=4;overflow=hidden;points=[[0,0.5],[1,0.5]];portConstraint=eastwest;rotatable=0;whiteSpace=wrap;html=1;" vertex="1" parent="I1jz4jynu2ulrxtqJUiv-266">
          <mxGeometry y="240" width="263" height="30" as="geometry" />
        </mxCell>
        <mxCell id="I1jz4jynu2ulrxtqJUiv-276" value="Spectacle" style="swimlane;fontStyle=0;childLayout=stackLayout;horizontal=1;startSize=30;horizontalStack=0;resizeParent=1;resizeParentMax=0;resizeLast=0;collapsible=1;marginBottom=0;whiteSpace=wrap;html=1;" vertex="1" parent="1">
          <mxGeometry x="1962.86" y="2790" width="270" height="180" as="geometry" />
        </mxCell>
        <mxCell id="I1jz4jynu2ulrxtqJUiv-277" value="+&amp;nbsp;spectacleId: int" style="text;strokeColor=none;fillColor=none;align=left;verticalAlign=middle;spacingLeft=4;spacingRight=4;overflow=hidden;points=[[0,0.5],[1,0.5]];portConstraint=eastwest;rotatable=0;whiteSpace=wrap;html=1;" vertex="1" parent="I1jz4jynu2ulrxtqJUiv-276">
          <mxGeometry y="30" width="270" height="30" as="geometry" />
        </mxCell>
        <mxCell id="I1jz4jynu2ulrxtqJUiv-278" value="+&amp;nbsp;title: string" style="text;strokeColor=none;fillColor=none;align=left;verticalAlign=middle;spacingLeft=4;spacingRight=4;overflow=hidden;points=[[0,0.5],[1,0.5]];portConstraint=eastwest;rotatable=0;whiteSpace=wrap;html=1;" vertex="1" parent="I1jz4jynu2ulrxtqJUiv-276">
          <mxGeometry y="60" width="270" height="30" as="geometry" />
        </mxCell>
        <mxCell id="I1jz4jynu2ulrxtqJUiv-279" value="+&amp;nbsp;description: string" style="text;strokeColor=none;fillColor=none;align=left;verticalAlign=middle;spacingLeft=4;spacingRight=4;overflow=hidden;points=[[0,0.5],[1,0.5]];portConstraint=eastwest;rotatable=0;whiteSpace=wrap;html=1;" vertex="1" parent="I1jz4jynu2ulrxtqJUiv-276">
          <mxGeometry y="90" width="270" height="30" as="geometry" />
        </mxCell>
        <mxCell id="I1jz4jynu2ulrxtqJUiv-280" value="+&amp;nbsp;cast: string" style="text;strokeColor=none;fillColor=none;align=left;verticalAlign=middle;spacingLeft=4;spacingRight=4;overflow=hidden;points=[[0,0.5],[1,0.5]];portConstraint=eastwest;rotatable=0;whiteSpace=wrap;html=1;" vertex="1" parent="I1jz4jynu2ulrxtqJUiv-276">
          <mxGeometry y="120" width="270" height="30" as="geometry" />
        </mxCell>
        <mxCell id="I1jz4jynu2ulrxtqJUiv-281" value="+&amp;nbsp;schedule: string" style="text;strokeColor=none;fillColor=none;align=left;verticalAlign=middle;spacingLeft=4;spacingRight=4;overflow=hidden;points=[[0,0.5],[1,0.5]];portConstraint=eastwest;rotatable=0;whiteSpace=wrap;html=1;" vertex="1" parent="I1jz4jynu2ulrxtqJUiv-276">
          <mxGeometry y="150" width="270" height="30" as="geometry" />
        </mxCell>
        <mxCell id="I1jz4jynu2ulrxtqJUiv-282" value="Reservation    " style="swimlane;fontStyle=0;childLayout=stackLayout;horizontal=1;startSize=30;horizontalStack=0;resizeParent=1;resizeParentMax=0;resizeLast=0;collapsible=1;marginBottom=0;whiteSpace=wrap;html=1;" vertex="1" parent="1">
          <mxGeometry x="1692.86" y="2790" width="210.5" height="149" as="geometry" />
        </mxCell>
        <mxCell id="I1jz4jynu2ulrxtqJUiv-283" value="+&amp;nbsp;reservationId: int" style="text;strokeColor=none;fillColor=none;align=left;verticalAlign=middle;spacingLeft=4;spacingRight=4;overflow=hidden;points=[[0,0.5],[1,0.5]];portConstraint=eastwest;rotatable=0;whiteSpace=wrap;html=1;" vertex="1" parent="I1jz4jynu2ulrxtqJUiv-282">
          <mxGeometry y="30" width="210.5" height="30" as="geometry" />
        </mxCell>
        <mxCell id="I1jz4jynu2ulrxtqJUiv-285" value="+&amp;nbsp;spectacleId: int" style="text;strokeColor=none;fillColor=none;align=left;verticalAlign=middle;spacingLeft=4;spacingRight=4;overflow=hidden;points=[[0,0.5],[1,0.5]];portConstraint=eastwest;rotatable=0;whiteSpace=wrap;html=1;" vertex="1" parent="I1jz4jynu2ulrxtqJUiv-282">
          <mxGeometry y="60" width="210.5" height="30" as="geometry" />
        </mxCell>
        <mxCell id="I1jz4jynu2ulrxtqJUiv-284" value="+&amp;nbsp;userId: int" style="text;strokeColor=none;fillColor=none;align=left;verticalAlign=middle;spacingLeft=4;spacingRight=4;overflow=hidden;points=[[0,0.5],[1,0.5]];portConstraint=eastwest;rotatable=0;whiteSpace=wrap;html=1;" vertex="1" parent="I1jz4jynu2ulrxtqJUiv-282">
          <mxGeometry y="90" width="210.5" height="30" as="geometry" />
        </mxCell>
        <mxCell id="I1jz4jynu2ulrxtqJUiv-286" value="+&amp;nbsp;seats: int" style="text;strokeColor=none;fillColor=none;align=left;verticalAlign=middle;spacingLeft=4;spacingRight=4;overflow=hidden;points=[[0,0.5],[1,0.5]];portConstraint=eastwest;rotatable=0;whiteSpace=wrap;html=1;" vertex="1" parent="I1jz4jynu2ulrxtqJUiv-282">
          <mxGeometry y="120" width="210.5" height="29" as="geometry" />
        </mxCell>
        <mxCell id="I1jz4jynu2ulrxtqJUiv-287" value="Review     " style="swimlane;fontStyle=0;childLayout=stackLayout;horizontal=1;startSize=30;horizontalStack=0;resizeParent=1;resizeParentMax=0;resizeLast=0;collapsible=1;marginBottom=0;whiteSpace=wrap;html=1;" vertex="1" parent="1">
          <mxGeometry x="1437.86" y="2790" width="210.5" height="149" as="geometry" />
        </mxCell>
        <mxCell id="I1jz4jynu2ulrxtqJUiv-288" value="+&amp;nbsp;reviewId: int" style="text;strokeColor=none;fillColor=none;align=left;verticalAlign=middle;spacingLeft=4;spacingRight=4;overflow=hidden;points=[[0,0.5],[1,0.5]];portConstraint=eastwest;rotatable=0;whiteSpace=wrap;html=1;" vertex="1" parent="I1jz4jynu2ulrxtqJUiv-287">
          <mxGeometry y="30" width="210.5" height="30" as="geometry" />
        </mxCell>
        <mxCell id="I1jz4jynu2ulrxtqJUiv-289" value="+&amp;nbsp;userId: int" style="text;strokeColor=none;fillColor=none;align=left;verticalAlign=middle;spacingLeft=4;spacingRight=4;overflow=hidden;points=[[0,0.5],[1,0.5]];portConstraint=eastwest;rotatable=0;whiteSpace=wrap;html=1;" vertex="1" parent="I1jz4jynu2ulrxtqJUiv-287">
          <mxGeometry y="60" width="210.5" height="30" as="geometry" />
        </mxCell>
        <mxCell id="I1jz4jynu2ulrxtqJUiv-290" value="+&amp;nbsp;spectacleId: int" style="text;strokeColor=none;fillColor=none;align=left;verticalAlign=middle;spacingLeft=4;spacingRight=4;overflow=hidden;points=[[0,0.5],[1,0.5]];portConstraint=eastwest;rotatable=0;whiteSpace=wrap;html=1;" vertex="1" parent="I1jz4jynu2ulrxtqJUiv-287">
          <mxGeometry y="90" width="210.5" height="30" as="geometry" />
        </mxCell>
        <mxCell id="I1jz4jynu2ulrxtqJUiv-291" value="+&amp;nbsp;rating: int" style="text;strokeColor=none;fillColor=none;align=left;verticalAlign=middle;spacingLeft=4;spacingRight=4;overflow=hidden;points=[[0,0.5],[1,0.5]];portConstraint=eastwest;rotatable=0;whiteSpace=wrap;html=1;" vertex="1" parent="I1jz4jynu2ulrxtqJUiv-287">
          <mxGeometry y="120" width="210.5" height="29" as="geometry" />
        </mxCell>
        <mxCell id="I1jz4jynu2ulrxtqJUiv-293" value="&lt;b&gt;1&lt;/b&gt;" style="text;html=1;align=center;verticalAlign=middle;resizable=0;points=[];autosize=1;strokeColor=none;fillColor=none;" vertex="1" parent="1">
          <mxGeometry x="1833.86" y="3329" width="30" height="30" as="geometry" />
        </mxCell>
        <mxCell id="I1jz4jynu2ulrxtqJUiv-296" style="edgeStyle=orthogonalEdgeStyle;rounded=0;orthogonalLoop=1;jettySize=auto;html=1;exitX=1;exitY=0.5;exitDx=0;exitDy=0;entryX=1;entryY=0.5;entryDx=0;entryDy=0;" edge="1" parent="1" source="I1jz4jynu2ulrxtqJUiv-277" target="I1jz4jynu2ulrxtqJUiv-290">
          <mxGeometry relative="1" as="geometry">
            <Array as="points">
              <mxPoint x="2236.86" y="2835" />
              <mxPoint x="2273.86" y="2835" />
              <mxPoint x="2273.86" y="3016" />
              <mxPoint x="1671.86" y="3016" />
              <mxPoint x="1671.86" y="2895" />
            </Array>
          </mxGeometry>
        </mxCell>
        <mxCell id="I1jz4jynu2ulrxtqJUiv-297" value="&lt;b&gt;1&lt;/b&gt;" style="text;html=1;align=center;verticalAlign=middle;resizable=0;points=[];autosize=1;strokeColor=none;fillColor=none;" vertex="1" parent="1">
          <mxGeometry x="1934.86" y="2804" width="25" height="26" as="geometry" />
        </mxCell>
        <mxCell id="I1jz4jynu2ulrxtqJUiv-298" style="edgeStyle=orthogonalEdgeStyle;rounded=0;orthogonalLoop=1;jettySize=auto;html=1;exitX=0;exitY=0.5;exitDx=0;exitDy=0;entryX=1;entryY=0.5;entryDx=0;entryDy=0;" edge="1" parent="1" source="I1jz4jynu2ulrxtqJUiv-277" target="I1jz4jynu2ulrxtqJUiv-285">
          <mxGeometry relative="1" as="geometry" />
        </mxCell>
        <mxCell id="I1jz4jynu2ulrxtqJUiv-299" value="&lt;b&gt;1&lt;/b&gt;" style="text;html=1;align=center;verticalAlign=middle;resizable=0;points=[];autosize=1;strokeColor=none;fillColor=none;" vertex="1" parent="1">
          <mxGeometry x="2242.86" y="2804" width="25" height="26" as="geometry" />
        </mxCell>
        <mxCell id="I1jz4jynu2ulrxtqJUiv-300" value="&lt;b&gt;...&lt;/b&gt;" style="text;html=1;align=center;verticalAlign=middle;resizable=0;points=[];autosize=1;strokeColor=none;fillColor=none;" vertex="1" parent="1">
          <mxGeometry x="1906.86" y="2870" width="28" height="26" as="geometry" />
        </mxCell>
        <mxCell id="I1jz4jynu2ulrxtqJUiv-301" value="" style="edgeStyle=orthogonalEdgeStyle;rounded=0;orthogonalLoop=1;jettySize=auto;html=1;exitX=0;exitY=0.5;exitDx=0;exitDy=0;entryX=0;entryY=0.5;entryDx=0;entryDy=0;" edge="1" parent="1" source="I1jz4jynu2ulrxtqJUiv-289" target="I1jz4jynu2ulrxtqJUiv-249">
          <mxGeometry relative="1" as="geometry">
            <mxPoint x="1437.86" y="2865" as="sourcePoint" />
            <mxPoint x="1453.86" y="3080" as="targetPoint" />
            <Array as="points">
              <mxPoint x="1437.86" y="2867" />
              <mxPoint x="1377.86" y="2867" />
              <mxPoint x="1377.86" y="3367" />
            </Array>
          </mxGeometry>
        </mxCell>
        <mxCell id="I1jz4jynu2ulrxtqJUiv-302" style="edgeStyle=orthogonalEdgeStyle;rounded=0;orthogonalLoop=1;jettySize=auto;html=1;exitX=0;exitY=0.5;exitDx=0;exitDy=0;entryX=0;entryY=0.5;entryDx=0;entryDy=0;" edge="1" parent="1" source="I1jz4jynu2ulrxtqJUiv-289" target="I1jz4jynu2ulrxtqJUiv-267">
          <mxGeometry relative="1" as="geometry">
            <Array as="points">
              <mxPoint x="1417.86" y="2865" />
              <mxPoint x="1417.86" y="3041" />
              <mxPoint x="2303.86" y="3041" />
              <mxPoint x="2303.86" y="2827" />
            </Array>
          </mxGeometry>
        </mxCell>
        <mxCell id="I1jz4jynu2ulrxtqJUiv-303" value="&lt;b&gt;...&lt;/b&gt;" style="text;html=1;align=center;verticalAlign=middle;resizable=0;points=[];autosize=1;strokeColor=none;fillColor=none;" vertex="1" parent="1">
          <mxGeometry x="1409.86" y="2838" width="28" height="26" as="geometry" />
        </mxCell>
        <mxCell id="I1jz4jynu2ulrxtqJUiv-304" value="&lt;b&gt;...&lt;/b&gt;" style="text;html=1;align=center;verticalAlign=middle;resizable=0;points=[];autosize=1;strokeColor=none;fillColor=none;" vertex="1" parent="1">
          <mxGeometry x="1412.86" y="2870" width="28" height="26" as="geometry" />
        </mxCell>
        <mxCell id="I1jz4jynu2ulrxtqJUiv-305" value="&lt;b&gt;1&lt;/b&gt;" style="text;html=1;align=center;verticalAlign=middle;resizable=0;points=[];autosize=1;strokeColor=none;fillColor=none;" vertex="1" parent="1">
          <mxGeometry x="2308.86" y="2793" width="25" height="26" as="geometry" />
        </mxCell>
        <mxCell id="I1jz4jynu2ulrxtqJUiv-306" style="edgeStyle=orthogonalEdgeStyle;rounded=0;orthogonalLoop=1;jettySize=auto;html=1;exitX=0;exitY=0.5;exitDx=0;exitDy=0;entryX=1;entryY=0.5;entryDx=0;entryDy=0;" edge="1" parent="1" source="I1jz4jynu2ulrxtqJUiv-284" target="I1jz4jynu2ulrxtqJUiv-249">
          <mxGeometry relative="1" as="geometry">
            <Array as="points">
              <mxPoint x="1682.86" y="2895" />
              <mxPoint x="1682.86" y="3099" />
              <mxPoint x="2157.86" y="3099" />
              <mxPoint x="2157.86" y="3367" />
            </Array>
          </mxGeometry>
        </mxCell>
        <mxCell id="I1jz4jynu2ulrxtqJUiv-307" value="&lt;b&gt;...&lt;/b&gt;" style="text;html=1;align=center;verticalAlign=middle;resizable=0;points=[];autosize=1;strokeColor=none;fillColor=none;" vertex="1" parent="1">
          <mxGeometry x="1664.86" y="2870" width="28" height="26" as="geometry" />
        </mxCell>
        <mxCell id="I1jz4jynu2ulrxtqJUiv-308" value="&lt;b&gt;1&lt;/b&gt;" style="text;html=1;align=center;verticalAlign=middle;resizable=0;points=[];autosize=1;strokeColor=none;fillColor=none;" vertex="1" parent="1">
          <mxGeometry x="2159.86" y="3335" width="30" height="30" as="geometry" />
        </mxCell>
      </root>
    </mxGraphModel>
  </diagram>
</mxfile>
